<mxfile host="drawio-plugin" modified="2021-05-15T20:48:43.266Z" agent="5.0 (Windows NT 6.2; Win64; x64) AppleWebKit/537.36 (KHTML, like Gecko) Chrome/87.0.4280.141 Safari/537.36" etag="R8-KYQnsHVGBmZxkVcjc" version="14.6.6" type="embed"><diagram id="C5RBs43oDa-KdzZeNtuy" name="Page-1"><mxGraphModel dx="1442" dy="441" grid="1" gridSize="10" guides="1" tooltips="1" connect="1" arrows="1" fold="1" page="1" pageScale="1" pageWidth="827" pageHeight="1169" math="0" shadow="0"><root><mxCell id="WIyWlLk6GJQsqaUBKTNV-0"/><mxCell id="WIyWlLk6GJQsqaUBKTNV-1" parent="WIyWlLk6GJQsqaUBKTNV-0"/><mxCell id="OEX8bm3E7YfKXSA0e_z2-1" value="Order" style="swimlane;fontStyle=1;align=center;verticalAlign=top;childLayout=stackLayout;horizontal=1;startSize=26;horizontalStack=0;resizeParent=1;resizeParentMax=0;resizeLast=0;collapsible=1;marginBottom=0;" parent="WIyWlLk6GJQsqaUBKTNV-1" vertex="1"><mxGeometry x="-134" y="539.5" width="170" height="267" as="geometry"/></mxCell><mxCell id="OEX8bm3E7YfKXSA0e_z2-2" value="+ orderID: ID" style="text;strokeColor=none;fillColor=none;align=left;verticalAlign=top;spacingLeft=4;spacingRight=4;overflow=hidden;rotatable=0;points=[[0,0.5],[1,0.5]];portConstraint=eastwest;" parent="OEX8bm3E7YfKXSA0e_z2-1" vertex="1"><mxGeometry y="26" width="170" height="26" as="geometry"/></mxCell><mxCell id="OEX8bm3E7YfKXSA0e_z2-3" value="+ orderTime: Datetime" style="text;strokeColor=none;fillColor=none;align=left;verticalAlign=top;spacingLeft=4;spacingRight=4;overflow=hidden;rotatable=0;points=[[0,0.5],[1,0.5]];portConstraint=eastwest;" parent="OEX8bm3E7YfKXSA0e_z2-1" vertex="1"><mxGeometry y="52" width="170" height="26" as="geometry"/></mxCell><mxCell id="OEX8bm3E7YfKXSA0e_z2-4" value="+ itemList: List[Item]" style="text;strokeColor=none;fillColor=none;align=left;verticalAlign=top;spacingLeft=4;spacingRight=4;overflow=hidden;rotatable=0;points=[[0,0.5],[1,0.5]];portConstraint=eastwest;" parent="OEX8bm3E7YfKXSA0e_z2-1" vertex="1"><mxGeometry y="78" width="170" height="26" as="geometry"/></mxCell><mxCell id="OEX8bm3E7YfKXSA0e_z2-5" value="+ price: Float" style="text;strokeColor=none;fillColor=none;align=left;verticalAlign=top;spacingLeft=4;spacingRight=4;overflow=hidden;rotatable=0;points=[[0,0.5],[1,0.5]];portConstraint=eastwest;" parent="OEX8bm3E7YfKXSA0e_z2-1" vertex="1"><mxGeometry y="104" width="170" height="26" as="geometry"/></mxCell><mxCell id="OEX8bm3E7YfKXSA0e_z2-9" value="+ customer: ID" style="text;strokeColor=none;fillColor=none;align=left;verticalAlign=top;spacingLeft=4;spacingRight=4;overflow=hidden;rotatable=0;points=[[0,0.5],[1,0.5]];portConstraint=eastwest;" parent="OEX8bm3E7YfKXSA0e_z2-1" vertex="1"><mxGeometry y="130" width="170" height="25" as="geometry"/></mxCell><mxCell id="OEX8bm3E7YfKXSA0e_z2-78" value="+ status: String" style="text;strokeColor=none;fillColor=none;align=left;verticalAlign=top;spacingLeft=4;spacingRight=4;overflow=hidden;rotatable=0;points=[[0,0.5],[1,0.5]];portConstraint=eastwest;" parent="OEX8bm3E7YfKXSA0e_z2-1" vertex="1"><mxGeometry y="155" width="170" height="26" as="geometry"/></mxCell><mxCell id="OEX8bm3E7YfKXSA0e_z2-6" value="" style="line;strokeWidth=1;fillColor=none;align=left;verticalAlign=middle;spacingTop=-1;spacingLeft=3;spacingRight=3;rotatable=0;labelPosition=right;points=[];portConstraint=eastwest;" parent="OEX8bm3E7YfKXSA0e_z2-1" vertex="1"><mxGeometry y="181" width="170" height="8" as="geometry"/></mxCell><mxCell id="OEX8bm3E7YfKXSA0e_z2-7" value="+ getItems(): List[Item]" style="text;strokeColor=none;fillColor=none;align=left;verticalAlign=top;spacingLeft=4;spacingRight=4;overflow=hidden;rotatable=0;points=[[0,0.5],[1,0.5]];portConstraint=eastwest;" parent="OEX8bm3E7YfKXSA0e_z2-1" vertex="1"><mxGeometry y="189" width="170" height="26" as="geometry"/></mxCell><mxCell id="OEX8bm3E7YfKXSA0e_z2-8" value="+ addItem(item: Item): None" style="text;strokeColor=none;fillColor=none;align=left;verticalAlign=top;spacingLeft=4;spacingRight=4;overflow=hidden;rotatable=0;points=[[0,0.5],[1,0.5]];portConstraint=eastwest;" parent="OEX8bm3E7YfKXSA0e_z2-1" vertex="1"><mxGeometry y="215" width="170" height="26" as="geometry"/></mxCell><mxCell id="OEX8bm3E7YfKXSA0e_z2-10" value="+ checkout(): Boolean" style="text;strokeColor=none;fillColor=none;align=left;verticalAlign=top;spacingLeft=4;spacingRight=4;overflow=hidden;rotatable=0;points=[[0,0.5],[1,0.5]];portConstraint=eastwest;" parent="OEX8bm3E7YfKXSA0e_z2-1" vertex="1"><mxGeometry y="241" width="170" height="26" as="geometry"/></mxCell><mxCell id="OEX8bm3E7YfKXSA0e_z2-13" value="CarOrder" style="swimlane;fontStyle=1;align=center;verticalAlign=top;childLayout=stackLayout;horizontal=1;startSize=26;horizontalStack=0;resizeParent=1;resizeParentMax=0;resizeLast=0;collapsible=1;marginBottom=0;" parent="WIyWlLk6GJQsqaUBKTNV-1" vertex="1"><mxGeometry x="-340" y="617" width="170" height="112" as="geometry"/></mxCell><mxCell id="OEX8bm3E7YfKXSA0e_z2-14" value="+ carPlate: String" style="text;strokeColor=none;fillColor=none;align=left;verticalAlign=top;spacingLeft=4;spacingRight=4;overflow=hidden;rotatable=0;points=[[0,0.5],[1,0.5]];portConstraint=eastwest;" parent="OEX8bm3E7YfKXSA0e_z2-13" vertex="1"><mxGeometry y="26" width="170" height="26" as="geometry"/></mxCell><mxCell id="OEX8bm3E7YfKXSA0e_z2-24" value="+ pickupLine: Integer" style="text;strokeColor=none;fillColor=none;align=left;verticalAlign=top;spacingLeft=4;spacingRight=4;overflow=hidden;rotatable=0;points=[[0,0.5],[1,0.5]];portConstraint=eastwest;" parent="OEX8bm3E7YfKXSA0e_z2-13" vertex="1"><mxGeometry y="52" width="170" height="26" as="geometry"/></mxCell><mxCell id="OEX8bm3E7YfKXSA0e_z2-19" value="" style="line;strokeWidth=1;fillColor=none;align=left;verticalAlign=middle;spacingTop=-1;spacingLeft=3;spacingRight=3;rotatable=0;labelPosition=right;points=[];portConstraint=eastwest;" parent="OEX8bm3E7YfKXSA0e_z2-13" vertex="1"><mxGeometry y="78" width="170" height="8" as="geometry"/></mxCell><mxCell id="zopAr0e53Q-2KH1AiWCa-9" value="+ deliverToCar(): Boolean" style="text;strokeColor=none;fillColor=none;align=left;verticalAlign=top;spacingLeft=4;spacingRight=4;overflow=hidden;rotatable=0;points=[[0,0.5],[1,0.5]];portConstraint=eastwest;" parent="OEX8bm3E7YfKXSA0e_z2-13" vertex="1"><mxGeometry y="86" width="170" height="26" as="geometry"/></mxCell><mxCell id="OEX8bm3E7YfKXSA0e_z2-68" value="Restaurant" style="swimlane;fontStyle=1;align=center;verticalAlign=top;childLayout=stackLayout;horizontal=1;startSize=26;horizontalStack=0;resizeParent=1;resizeParentMax=0;resizeLast=0;collapsible=1;marginBottom=0;" parent="WIyWlLk6GJQsqaUBKTNV-1" vertex="1"><mxGeometry x="470" y="414.5" width="270" height="190" as="geometry"/></mxCell><mxCell id="OEX8bm3E7YfKXSA0e_z2-69" value="- totalMoneyFlow: Float" style="text;strokeColor=none;fillColor=none;align=left;verticalAlign=top;spacingLeft=4;spacingRight=4;overflow=hidden;rotatable=0;points=[[0,0.5],[1,0.5]];portConstraint=eastwest;" parent="OEX8bm3E7YfKXSA0e_z2-68" vertex="1"><mxGeometry y="26" width="270" height="26" as="geometry"/></mxCell><mxCell id="OEX8bm3E7YfKXSA0e_z2-148" value="# hallDispatcher: HallDispatcher" style="text;strokeColor=none;fillColor=none;align=left;verticalAlign=top;spacingLeft=4;spacingRight=4;overflow=hidden;rotatable=0;points=[[0,0.5],[1,0.5]];portConstraint=eastwest;" parent="OEX8bm3E7YfKXSA0e_z2-68" vertex="1"><mxGeometry y="52" width="270" height="26" as="geometry"/></mxCell><mxCell id="OEX8bm3E7YfKXSA0e_z2-136" value="# problemsList: List[Problem]" style="text;strokeColor=none;fillColor=none;align=left;verticalAlign=top;spacingLeft=4;spacingRight=4;overflow=hidden;rotatable=0;points=[[0,0.5],[1,0.5]];portConstraint=eastwest;" parent="OEX8bm3E7YfKXSA0e_z2-68" vertex="1"><mxGeometry y="78" width="270" height="26" as="geometry"/></mxCell><mxCell id="OEX8bm3E7YfKXSA0e_z2-86" value="+ isClosed: Boolean" style="text;strokeColor=none;fillColor=none;align=left;verticalAlign=top;spacingLeft=4;spacingRight=4;overflow=hidden;rotatable=0;points=[[0,0.5],[1,0.5]];portConstraint=eastwest;" parent="OEX8bm3E7YfKXSA0e_z2-68" vertex="1"><mxGeometry y="104" width="270" height="26" as="geometry"/></mxCell><mxCell id="OEX8bm3E7YfKXSA0e_z2-70" value="" style="line;strokeWidth=1;fillColor=none;align=left;verticalAlign=middle;spacingTop=-1;spacingLeft=3;spacingRight=3;rotatable=0;labelPosition=right;points=[];portConstraint=eastwest;" parent="OEX8bm3E7YfKXSA0e_z2-68" vertex="1"><mxGeometry y="130" width="270" height="8" as="geometry"/></mxCell><mxCell id="OEX8bm3E7YfKXSA0e_z2-71" value="+ getStatistics(): String" style="text;strokeColor=none;fillColor=none;align=left;verticalAlign=top;spacingLeft=4;spacingRight=4;overflow=hidden;rotatable=0;points=[[0,0.5],[1,0.5]];portConstraint=eastwest;" parent="OEX8bm3E7YfKXSA0e_z2-68" vertex="1"><mxGeometry y="138" width="270" height="26" as="geometry"/></mxCell><mxCell id="OEX8bm3E7YfKXSA0e_z2-100" value="+ getTransactionHistory(period: Datetime): String" style="text;strokeColor=none;fillColor=none;align=left;verticalAlign=top;spacingLeft=4;spacingRight=4;overflow=hidden;rotatable=0;points=[[0,0.5],[1,0.5]];portConstraint=eastwest;" parent="OEX8bm3E7YfKXSA0e_z2-68" vertex="1"><mxGeometry y="164" width="270" height="26" as="geometry"/></mxCell><mxCell id="OEX8bm3E7YfKXSA0e_z2-93" value="Problem" style="swimlane;fontStyle=1;align=center;verticalAlign=top;childLayout=stackLayout;horizontal=1;startSize=26;horizontalStack=0;resizeParent=1;resizeParentMax=0;resizeLast=0;collapsible=1;marginBottom=0;fillColor=#FFFFFF;" parent="WIyWlLk6GJQsqaUBKTNV-1" vertex="1"><mxGeometry x="500" y="110" width="210" height="242" as="geometry"/></mxCell><mxCell id="zopAr0e53Q-2KH1AiWCa-39" value="+ problemID: ID" style="text;strokeColor=none;fillColor=none;align=left;verticalAlign=top;spacingLeft=4;spacingRight=4;overflow=hidden;rotatable=0;points=[[0,0.5],[1,0.5]];portConstraint=eastwest;" parent="OEX8bm3E7YfKXSA0e_z2-93" vertex="1"><mxGeometry y="26" width="210" height="26" as="geometry"/></mxCell><mxCell id="OEX8bm3E7YfKXSA0e_z2-94" value="+ topic: String" style="text;strokeColor=none;fillColor=none;align=left;verticalAlign=top;spacingLeft=4;spacingRight=4;overflow=hidden;rotatable=0;points=[[0,0.5],[1,0.5]];portConstraint=eastwest;" parent="OEX8bm3E7YfKXSA0e_z2-93" vertex="1"><mxGeometry y="52" width="210" height="26" as="geometry"/></mxCell><mxCell id="OEX8bm3E7YfKXSA0e_z2-95" value="+ explanation: String" style="text;strokeColor=none;fillColor=none;align=left;verticalAlign=top;spacingLeft=4;spacingRight=4;overflow=hidden;rotatable=0;points=[[0,0.5],[1,0.5]];portConstraint=eastwest;" parent="OEX8bm3E7YfKXSA0e_z2-93" vertex="1"><mxGeometry y="78" width="210" height="26" as="geometry"/></mxCell><mxCell id="OEX8bm3E7YfKXSA0e_z2-119" value="+ date: Datetime" style="text;strokeColor=none;fillColor=none;align=left;verticalAlign=top;spacingLeft=4;spacingRight=4;overflow=hidden;rotatable=0;points=[[0,0.5],[1,0.5]];portConstraint=eastwest;" parent="OEX8bm3E7YfKXSA0e_z2-93" vertex="1"><mxGeometry y="104" width="210" height="26" as="geometry"/></mxCell><mxCell id="OEX8bm3E7YfKXSA0e_z2-121" value="+ handlerManager: String" style="text;strokeColor=none;fillColor=none;align=left;verticalAlign=top;spacingLeft=4;spacingRight=4;overflow=hidden;rotatable=0;points=[[0,0.5],[1,0.5]];portConstraint=eastwest;" parent="OEX8bm3E7YfKXSA0e_z2-93" vertex="1"><mxGeometry y="130" width="210" height="26" as="geometry"/></mxCell><mxCell id="OEX8bm3E7YfKXSA0e_z2-123" value="+ status: String" style="text;strokeColor=none;fillColor=none;align=left;verticalAlign=top;spacingLeft=4;spacingRight=4;overflow=hidden;rotatable=0;points=[[0,0.5],[1,0.5]];portConstraint=eastwest;" parent="OEX8bm3E7YfKXSA0e_z2-93" vertex="1"><mxGeometry y="156" width="210" height="26" as="geometry"/></mxCell><mxCell id="OEX8bm3E7YfKXSA0e_z2-96" value="" style="line;strokeWidth=1;fillColor=none;align=left;verticalAlign=middle;spacingTop=-1;spacingLeft=3;spacingRight=3;rotatable=0;labelPosition=right;points=[];portConstraint=eastwest;" parent="OEX8bm3E7YfKXSA0e_z2-93" vertex="1"><mxGeometry y="182" width="210" height="8" as="geometry"/></mxCell><mxCell id="OEX8bm3E7YfKXSA0e_z2-99" value="+ solveProblem(): Boolean" style="text;strokeColor=none;fillColor=none;align=left;verticalAlign=top;spacingLeft=4;spacingRight=4;overflow=hidden;rotatable=0;points=[[0,0.5],[1,0.5]];portConstraint=eastwest;" parent="OEX8bm3E7YfKXSA0e_z2-93" vertex="1"><mxGeometry y="190" width="210" height="26" as="geometry"/></mxCell><mxCell id="OEX8bm3E7YfKXSA0e_z2-122" value="+ supressProblem(): Boolean" style="text;strokeColor=none;fillColor=none;align=left;verticalAlign=top;spacingLeft=4;spacingRight=4;overflow=hidden;rotatable=0;points=[[0,0.5],[1,0.5]];portConstraint=eastwest;" parent="OEX8bm3E7YfKXSA0e_z2-93" vertex="1"><mxGeometry y="216" width="210" height="26" as="geometry"/></mxCell><mxCell id="OEX8bm3E7YfKXSA0e_z2-124" value="Customer" style="swimlane;fontStyle=1;align=center;verticalAlign=top;childLayout=stackLayout;horizontal=1;startSize=26;horizontalStack=0;resizeParent=1;resizeParentMax=0;resizeLast=0;collapsible=1;marginBottom=0;" parent="WIyWlLk6GJQsqaUBKTNV-1" vertex="1"><mxGeometry x="130" y="100" width="250" height="190" as="geometry"/></mxCell><mxCell id="OEX8bm3E7YfKXSA0e_z2-125" value="+ customerID: ID" style="text;strokeColor=none;fillColor=none;align=left;verticalAlign=top;spacingLeft=4;spacingRight=4;overflow=hidden;rotatable=0;points=[[0,0.5],[1,0.5]];portConstraint=eastwest;" parent="OEX8bm3E7YfKXSA0e_z2-124" vertex="1"><mxGeometry y="26" width="250" height="26" as="geometry"/></mxCell><mxCell id="OEX8bm3E7YfKXSA0e_z2-126" value="+ name: String" style="text;strokeColor=none;fillColor=none;align=left;verticalAlign=top;spacingLeft=4;spacingRight=4;overflow=hidden;rotatable=0;points=[[0,0.5],[1,0.5]];portConstraint=eastwest;" parent="OEX8bm3E7YfKXSA0e_z2-124" vertex="1"><mxGeometry y="52" width="250" height="26" as="geometry"/></mxCell><mxCell id="OEX8bm3E7YfKXSA0e_z2-127" value="+ surname: String" style="text;strokeColor=none;fillColor=none;align=left;verticalAlign=top;spacingLeft=4;spacingRight=4;overflow=hidden;rotatable=0;points=[[0,0.5],[1,0.5]];portConstraint=eastwest;" parent="OEX8bm3E7YfKXSA0e_z2-124" vertex="1"><mxGeometry y="78" width="250" height="26" as="geometry"/></mxCell><mxCell id="OEX8bm3E7YfKXSA0e_z2-131" value="" style="line;strokeWidth=1;fillColor=none;align=left;verticalAlign=middle;spacingTop=-1;spacingLeft=3;spacingRight=3;rotatable=0;labelPosition=right;points=[];portConstraint=eastwest;" parent="OEX8bm3E7YfKXSA0e_z2-124" vertex="1"><mxGeometry y="104" width="250" height="8" as="geometry"/></mxCell><mxCell id="OEX8bm3E7YfKXSA0e_z2-132" value="+ makeOrder(): None" style="text;strokeColor=none;fillColor=none;align=left;verticalAlign=top;spacingLeft=4;spacingRight=4;overflow=hidden;rotatable=0;points=[[0,0.5],[1,0.5]];portConstraint=eastwest;" parent="OEX8bm3E7YfKXSA0e_z2-124" vertex="1"><mxGeometry y="112" width="250" height="26" as="geometry"/></mxCell><mxCell id="OEX8bm3E7YfKXSA0e_z2-133" value="+ makeCompliance(reason: String): Problem" style="text;strokeColor=none;fillColor=none;align=left;verticalAlign=top;spacingLeft=4;spacingRight=4;overflow=hidden;rotatable=0;points=[[0,0.5],[1,0.5]];portConstraint=eastwest;" parent="OEX8bm3E7YfKXSA0e_z2-124" vertex="1"><mxGeometry y="138" width="250" height="26" as="geometry"/></mxCell><mxCell id="OEX8bm3E7YfKXSA0e_z2-134" value="+ leave(): None" style="text;strokeColor=none;fillColor=none;align=left;verticalAlign=top;spacingLeft=4;spacingRight=4;overflow=hidden;rotatable=0;points=[[0,0.5],[1,0.5]];portConstraint=eastwest;" parent="OEX8bm3E7YfKXSA0e_z2-124" vertex="1"><mxGeometry y="164" width="250" height="26" as="geometry"/></mxCell><mxCell id="OEX8bm3E7YfKXSA0e_z2-137" value="HallDispatcher" style="swimlane;fontStyle=1;align=center;verticalAlign=top;childLayout=stackLayout;horizontal=1;startSize=26;horizontalStack=0;resizeParent=1;resizeParentMax=0;resizeLast=0;collapsible=1;marginBottom=0;fillColor=#FFFFFF;" parent="WIyWlLk6GJQsqaUBKTNV-1" vertex="1"><mxGeometry x="120" y="401.5" width="270" height="216" as="geometry"/></mxCell><mxCell id="OEX8bm3E7YfKXSA0e_z2-139" value="# workersList: List[Worker]" style="text;strokeColor=none;fillColor=none;align=left;verticalAlign=top;spacingLeft=4;spacingRight=4;overflow=hidden;rotatable=0;points=[[0,0.5],[1,0.5]];portConstraint=eastwest;" parent="OEX8bm3E7YfKXSA0e_z2-137" vertex="1"><mxGeometry y="26" width="270" height="26" as="geometry"/></mxCell><mxCell id="OEX8bm3E7YfKXSA0e_z2-140" value="# ordersQueue: List[Order]" style="text;strokeColor=none;fillColor=none;align=left;verticalAlign=top;spacingLeft=4;spacingRight=4;overflow=hidden;rotatable=0;points=[[0,0.5],[1,0.5]];portConstraint=eastwest;" parent="OEX8bm3E7YfKXSA0e_z2-137" vertex="1"><mxGeometry y="52" width="270" height="26" as="geometry"/></mxCell><mxCell id="zopAr0e53Q-2KH1AiWCa-0" value="# storage: Storage" style="text;strokeColor=none;fillColor=none;align=left;verticalAlign=top;spacingLeft=4;spacingRight=4;overflow=hidden;rotatable=0;points=[[0,0.5],[1,0.5]];portConstraint=eastwest;" parent="OEX8bm3E7YfKXSA0e_z2-137" vertex="1"><mxGeometry y="78" width="270" height="26" as="geometry"/></mxCell><mxCell id="OEX8bm3E7YfKXSA0e_z2-144" value="" style="line;strokeWidth=1;fillColor=none;align=left;verticalAlign=middle;spacingTop=-1;spacingLeft=3;spacingRight=3;rotatable=0;labelPosition=right;points=[];portConstraint=eastwest;" parent="OEX8bm3E7YfKXSA0e_z2-137" vertex="1"><mxGeometry y="104" width="270" height="8" as="geometry"/></mxCell><mxCell id="OEX8bm3E7YfKXSA0e_z2-145" value="+ makeOrder(): None" style="text;strokeColor=none;fillColor=none;align=left;verticalAlign=top;spacingLeft=4;spacingRight=4;overflow=hidden;rotatable=0;points=[[0,0.5],[1,0.5]];portConstraint=eastwest;" parent="OEX8bm3E7YfKXSA0e_z2-137" vertex="1"><mxGeometry y="112" width="270" height="26" as="geometry"/></mxCell><mxCell id="OEX8bm3E7YfKXSA0e_z2-146" value="+ abortOrder(orderID: UUID): None" style="text;strokeColor=none;fillColor=none;align=left;verticalAlign=top;spacingLeft=4;spacingRight=4;overflow=hidden;rotatable=0;points=[[0,0.5],[1,0.5]];portConstraint=eastwest;" parent="OEX8bm3E7YfKXSA0e_z2-137" vertex="1"><mxGeometry y="138" width="270" height="26" as="geometry"/></mxCell><mxCell id="OEX8bm3E7YfKXSA0e_z2-149" value="- searchCook(orderID: UUID): Boolean" style="text;strokeColor=none;fillColor=none;align=left;verticalAlign=top;spacingLeft=4;spacingRight=4;overflow=hidden;rotatable=0;points=[[0,0.5],[1,0.5]];portConstraint=eastwest;" parent="OEX8bm3E7YfKXSA0e_z2-137" vertex="1"><mxGeometry y="164" width="270" height="26" as="geometry"/></mxCell><mxCell id="OEX8bm3E7YfKXSA0e_z2-150" value="+ returnOrder(): Order" style="text;strokeColor=none;fillColor=none;align=left;verticalAlign=top;spacingLeft=4;spacingRight=4;overflow=hidden;rotatable=0;points=[[0,0.5],[1,0.5]];portConstraint=eastwest;" parent="OEX8bm3E7YfKXSA0e_z2-137" vertex="1"><mxGeometry y="190" width="270" height="26" as="geometry"/></mxCell><mxCell id="zopAr0e53Q-2KH1AiWCa-6" value="" style="group" parent="WIyWlLk6GJQsqaUBKTNV-1" vertex="1" connectable="0"><mxGeometry x="-600" y="60" width="636" height="437" as="geometry"/></mxCell><mxCell id="wLq6gAzN8LBsn4TCTYnC-0" value="Worker" style="swimlane;fontStyle=1;align=center;verticalAlign=top;childLayout=stackLayout;horizontal=1;startSize=26;horizontalStack=0;resizeParent=1;resizeParentMax=0;resizeLast=0;collapsible=1;marginBottom=0;" parent="zopAr0e53Q-2KH1AiWCa-6" vertex="1"><mxGeometry x="400" y="150" width="210" height="216" as="geometry"/></mxCell><mxCell id="zopAr0e53Q-2KH1AiWCa-38" value="+ workerID: ID" style="text;strokeColor=none;fillColor=none;align=left;verticalAlign=top;spacingLeft=4;spacingRight=4;overflow=hidden;rotatable=0;points=[[0,0.5],[1,0.5]];portConstraint=eastwest;" parent="wLq6gAzN8LBsn4TCTYnC-0" vertex="1"><mxGeometry y="26" width="210" height="26" as="geometry"/></mxCell><mxCell id="wLq6gAzN8LBsn4TCTYnC-1" value="+ name: String" style="text;strokeColor=none;fillColor=none;align=left;verticalAlign=top;spacingLeft=4;spacingRight=4;overflow=hidden;rotatable=0;points=[[0,0.5],[1,0.5]];portConstraint=eastwest;" parent="wLq6gAzN8LBsn4TCTYnC-0" vertex="1"><mxGeometry y="52" width="210" height="26" as="geometry"/></mxCell><mxCell id="wLq6gAzN8LBsn4TCTYnC-8" value="+ surname: String" style="text;strokeColor=none;fillColor=none;align=left;verticalAlign=top;spacingLeft=4;spacingRight=4;overflow=hidden;rotatable=0;points=[[0,0.5],[1,0.5]];portConstraint=eastwest;" parent="wLq6gAzN8LBsn4TCTYnC-0" vertex="1"><mxGeometry y="78" width="210" height="26" as="geometry"/></mxCell><mxCell id="wLq6gAzN8LBsn4TCTYnC-9" value="# passport: Integer" style="text;strokeColor=none;fillColor=none;align=left;verticalAlign=top;spacingLeft=4;spacingRight=4;overflow=hidden;rotatable=0;points=[[0,0.5],[1,0.5]];portConstraint=eastwest;" parent="wLq6gAzN8LBsn4TCTYnC-0" vertex="1"><mxGeometry y="104" width="210" height="26" as="geometry"/></mxCell><mxCell id="wLq6gAzN8LBsn4TCTYnC-11" value="# job: String" style="text;strokeColor=none;fillColor=none;align=left;verticalAlign=top;spacingLeft=4;spacingRight=4;overflow=hidden;rotatable=0;points=[[0,0.5],[1,0.5]];portConstraint=eastwest;" parent="wLq6gAzN8LBsn4TCTYnC-0" vertex="1"><mxGeometry y="130" width="210" height="26" as="geometry"/></mxCell><mxCell id="wLq6gAzN8LBsn4TCTYnC-2" value="" style="line;strokeWidth=1;fillColor=none;align=left;verticalAlign=middle;spacingTop=-1;spacingLeft=3;spacingRight=3;rotatable=0;labelPosition=right;points=[];portConstraint=eastwest;" parent="wLq6gAzN8LBsn4TCTYnC-0" vertex="1"><mxGeometry y="156" width="210" height="8" as="geometry"/></mxCell><mxCell id="wLq6gAzN8LBsn4TCTYnC-3" value="+ setJob(job: String): Boolean" style="text;strokeColor=none;fillColor=none;align=left;verticalAlign=top;spacingLeft=4;spacingRight=4;overflow=hidden;rotatable=0;points=[[0,0.5],[1,0.5]];portConstraint=eastwest;" parent="wLq6gAzN8LBsn4TCTYnC-0" vertex="1"><mxGeometry y="164" width="210" height="26" as="geometry"/></mxCell><mxCell id="OEX8bm3E7YfKXSA0e_z2-114" value="+ checkExpiredFood(): None" style="text;strokeColor=none;fillColor=none;align=left;verticalAlign=top;spacingLeft=4;spacingRight=4;overflow=hidden;rotatable=0;points=[[0,0.5],[1,0.5]];portConstraint=eastwest;" parent="wLq6gAzN8LBsn4TCTYnC-0" vertex="1"><mxGeometry y="190" width="210" height="26" as="geometry"/></mxCell><mxCell id="OEX8bm3E7YfKXSA0e_z2-34" value="Cook" style="swimlane;fontStyle=1;align=center;verticalAlign=top;childLayout=stackLayout;horizontal=1;startSize=26;horizontalStack=0;resizeParent=1;resizeParentMax=0;resizeLast=0;collapsible=1;marginBottom=0;" parent="zopAr0e53Q-2KH1AiWCa-6" vertex="1"><mxGeometry x="115" width="210" height="164" as="geometry"/></mxCell><mxCell id="OEX8bm3E7YfKXSA0e_z2-39" value="+ currentMeal: String" style="text;strokeColor=none;fillColor=none;align=left;verticalAlign=top;spacingLeft=4;spacingRight=4;overflow=hidden;rotatable=0;points=[[0,0.5],[1,0.5]];portConstraint=eastwest;" parent="OEX8bm3E7YfKXSA0e_z2-34" vertex="1"><mxGeometry y="26" width="210" height="26" as="geometry"/></mxCell><mxCell id="OEX8bm3E7YfKXSA0e_z2-73" value="+ estimationTime: Time" style="text;strokeColor=none;fillColor=none;align=left;verticalAlign=top;spacingLeft=4;spacingRight=4;overflow=hidden;rotatable=0;points=[[0,0.5],[1,0.5]];portConstraint=eastwest;" parent="OEX8bm3E7YfKXSA0e_z2-34" vertex="1"><mxGeometry y="52" width="210" height="26" as="geometry"/></mxCell><mxCell id="OEX8bm3E7YfKXSA0e_z2-40" value="" style="line;strokeWidth=1;fillColor=none;align=left;verticalAlign=middle;spacingTop=-1;spacingLeft=3;spacingRight=3;rotatable=0;labelPosition=right;points=[];portConstraint=eastwest;" parent="OEX8bm3E7YfKXSA0e_z2-34" vertex="1"><mxGeometry y="78" width="210" height="8" as="geometry"/></mxCell><mxCell id="OEX8bm3E7YfKXSA0e_z2-41" value="+ startCooking(meal: String): None" style="text;strokeColor=none;fillColor=none;align=left;verticalAlign=top;spacingLeft=4;spacingRight=4;overflow=hidden;rotatable=0;points=[[0,0.5],[1,0.5]];portConstraint=eastwest;" parent="OEX8bm3E7YfKXSA0e_z2-34" vertex="1"><mxGeometry y="86" width="210" height="26" as="geometry"/></mxCell><mxCell id="OEX8bm3E7YfKXSA0e_z2-42" value="+ giveMeal(): String" style="text;strokeColor=none;fillColor=none;align=left;verticalAlign=top;spacingLeft=4;spacingRight=4;overflow=hidden;rotatable=0;points=[[0,0.5],[1,0.5]];portConstraint=eastwest;" parent="OEX8bm3E7YfKXSA0e_z2-34" vertex="1"><mxGeometry y="112" width="210" height="26" as="geometry"/></mxCell><mxCell id="OEX8bm3E7YfKXSA0e_z2-75" value="+ requestFood(): String" style="text;strokeColor=none;fillColor=none;align=left;verticalAlign=top;spacingLeft=4;spacingRight=4;overflow=hidden;rotatable=0;points=[[0,0.5],[1,0.5]];portConstraint=eastwest;" parent="OEX8bm3E7YfKXSA0e_z2-34" vertex="1"><mxGeometry y="138" width="210" height="26" as="geometry"/></mxCell><mxCell id="OEX8bm3E7YfKXSA0e_z2-58" value="Manager" style="swimlane;fontStyle=1;align=center;verticalAlign=top;childLayout=stackLayout;horizontal=1;startSize=26;horizontalStack=0;resizeParent=1;resizeParentMax=0;resizeLast=0;collapsible=1;marginBottom=0;" parent="zopAr0e53Q-2KH1AiWCa-6" vertex="1"><mxGeometry x="49" y="221" width="276" height="242" as="geometry"/></mxCell><mxCell id="OEX8bm3E7YfKXSA0e_z2-59" value="+ currentState: String" style="text;strokeColor=none;fillColor=none;align=left;verticalAlign=top;spacingLeft=4;spacingRight=4;overflow=hidden;rotatable=0;points=[[0,0.5],[1,0.5]];portConstraint=eastwest;" parent="OEX8bm3E7YfKXSA0e_z2-58" vertex="1"><mxGeometry y="26" width="276" height="26" as="geometry"/></mxCell><mxCell id="OEX8bm3E7YfKXSA0e_z2-60" value="" style="line;strokeWidth=1;fillColor=none;align=left;verticalAlign=middle;spacingTop=-1;spacingLeft=3;spacingRight=3;rotatable=0;labelPosition=right;points=[];portConstraint=eastwest;" parent="OEX8bm3E7YfKXSA0e_z2-58" vertex="1"><mxGeometry y="52" width="276" height="8" as="geometry"/></mxCell><mxCell id="zopAr0e53Q-2KH1AiWCa-44" value="+ promoteManager(workerID: ID): Manager" style="text;strokeColor=none;fillColor=none;align=left;verticalAlign=top;spacingLeft=4;spacingRight=4;overflow=hidden;rotatable=0;points=[[0,0.5],[1,0.5]];portConstraint=eastwest;fontStyle=4" parent="OEX8bm3E7YfKXSA0e_z2-58" vertex="1"><mxGeometry y="60" width="276" height="26" as="geometry"/></mxCell><mxCell id="OEX8bm3E7YfKXSA0e_z2-61" value="+ solveOrderProblem(problemID: ID): Boolean" style="text;strokeColor=none;fillColor=none;align=left;verticalAlign=top;spacingLeft=4;spacingRight=4;overflow=hidden;rotatable=0;points=[[0,0.5],[1,0.5]];portConstraint=eastwest;" parent="OEX8bm3E7YfKXSA0e_z2-58" vertex="1"><mxGeometry y="86" width="276" height="26" as="geometry"/></mxCell><mxCell id="OEX8bm3E7YfKXSA0e_z2-77" value="+ getCustomerServiceRate(): Integer" style="text;strokeColor=none;fillColor=none;align=left;verticalAlign=top;spacingLeft=4;spacingRight=4;overflow=hidden;rotatable=0;points=[[0,0.5],[1,0.5]];portConstraint=eastwest;" parent="OEX8bm3E7YfKXSA0e_z2-58" vertex="1"><mxGeometry y="112" width="276" height="26" as="geometry"/></mxCell><mxCell id="OEX8bm3E7YfKXSA0e_z2-92" value="+ openRestaurant(): Boolean" style="text;strokeColor=none;fillColor=none;align=left;verticalAlign=top;spacingLeft=4;spacingRight=4;overflow=hidden;rotatable=0;points=[[0,0.5],[1,0.5]];portConstraint=eastwest;" parent="OEX8bm3E7YfKXSA0e_z2-58" vertex="1"><mxGeometry y="138" width="276" height="26" as="geometry"/></mxCell><mxCell id="OEX8bm3E7YfKXSA0e_z2-88" value="+ closeRestaurant(): Boolean" style="text;strokeColor=none;fillColor=none;align=left;verticalAlign=top;spacingLeft=4;spacingRight=4;overflow=hidden;rotatable=0;points=[[0,0.5],[1,0.5]];portConstraint=eastwest;" parent="OEX8bm3E7YfKXSA0e_z2-58" vertex="1"><mxGeometry y="164" width="276" height="26" as="geometry"/></mxCell><mxCell id="OEX8bm3E7YfKXSA0e_z2-90" value="+ openHall(): Boolean" style="text;strokeColor=none;fillColor=none;align=left;verticalAlign=top;spacingLeft=4;spacingRight=4;overflow=hidden;rotatable=0;points=[[0,0.5],[1,0.5]];portConstraint=eastwest;" parent="OEX8bm3E7YfKXSA0e_z2-58" vertex="1"><mxGeometry y="190" width="276" height="26" as="geometry"/></mxCell><mxCell id="OEX8bm3E7YfKXSA0e_z2-89" value="+ closeHall(): Boolean" style="text;strokeColor=none;fillColor=none;align=left;verticalAlign=top;spacingLeft=4;spacingRight=4;overflow=hidden;rotatable=0;points=[[0,0.5],[1,0.5]];portConstraint=eastwest;" parent="OEX8bm3E7YfKXSA0e_z2-58" vertex="1"><mxGeometry y="216" width="276" height="26" as="geometry"/></mxCell><mxCell id="zopAr0e53Q-2KH1AiWCa-4" value="" style="endArrow=block;endSize=16;endFill=0;html=1;" parent="zopAr0e53Q-2KH1AiWCa-6" source="OEX8bm3E7YfKXSA0e_z2-34" target="wLq6gAzN8LBsn4TCTYnC-0" edge="1"><mxGeometry y="-40" width="160" relative="1" as="geometry"><mxPoint x="186" y="61.410000000000025" as="sourcePoint"/><mxPoint x="346" y="61.410000000000025" as="targetPoint"/><Array as="points"><mxPoint x="356" y="80"/><mxPoint x="356" y="261"/></Array><mxPoint as="offset"/></mxGeometry></mxCell><mxCell id="zopAr0e53Q-2KH1AiWCa-5" value="" style="endArrow=block;endSize=16;endFill=0;html=1;" parent="zopAr0e53Q-2KH1AiWCa-6" source="OEX8bm3E7YfKXSA0e_z2-58" target="wLq6gAzN8LBsn4TCTYnC-0" edge="1"><mxGeometry y="-40" width="160" relative="1" as="geometry"><mxPoint x="146" y="114.63" as="sourcePoint"/><mxPoint x="336" y="300" as="targetPoint"/><Array as="points"><mxPoint x="356" y="330"/><mxPoint x="356" y="261"/></Array><mxPoint as="offset"/></mxGeometry></mxCell><mxCell id="zopAr0e53Q-2KH1AiWCa-8" value="" style="endArrow=block;endSize=16;endFill=0;html=1;" parent="WIyWlLk6GJQsqaUBKTNV-1" source="OEX8bm3E7YfKXSA0e_z2-13" target="OEX8bm3E7YfKXSA0e_z2-1" edge="1"><mxGeometry x="-0.0625" y="-40" width="160" relative="1" as="geometry"><mxPoint x="375" y="210" as="sourcePoint"/><mxPoint x="535" y="210" as="targetPoint"/><mxPoint as="offset"/></mxGeometry></mxCell><mxCell id="zopAr0e53Q-2KH1AiWCa-10" value="" style="endArrow=diamondThin;endFill=1;endSize=24;html=1;" parent="WIyWlLk6GJQsqaUBKTNV-1" source="OEX8bm3E7YfKXSA0e_z2-137" target="OEX8bm3E7YfKXSA0e_z2-68" edge="1"><mxGeometry width="160" relative="1" as="geometry"><mxPoint x="430" y="716" as="sourcePoint"/><mxPoint x="430" y="660" as="targetPoint"/></mxGeometry></mxCell><mxCell id="zopAr0e53Q-2KH1AiWCa-26" value="" style="group" parent="WIyWlLk6GJQsqaUBKTNV-1" vertex="1" connectable="0"><mxGeometry x="110" y="660" width="320" height="358" as="geometry"/></mxCell><mxCell id="OEX8bm3E7YfKXSA0e_z2-43" value="Storage" style="swimlane;fontStyle=1;align=center;verticalAlign=top;childLayout=stackLayout;horizontal=1;startSize=26;horizontalStack=0;resizeParent=1;resizeParentMax=0;resizeLast=0;collapsible=1;marginBottom=0;" parent="zopAr0e53Q-2KH1AiWCa-26" vertex="1"><mxGeometry x="-16.5" width="323" height="190" as="geometry"/></mxCell><mxCell id="OEX8bm3E7YfKXSA0e_z2-44" value="+ temperature: Float" style="text;strokeColor=none;fillColor=none;align=left;verticalAlign=top;spacingLeft=4;spacingRight=4;overflow=hidden;rotatable=0;points=[[0,0.5],[1,0.5]];portConstraint=eastwest;" parent="OEX8bm3E7YfKXSA0e_z2-43" vertex="1"><mxGeometry y="26" width="323" height="26" as="geometry"/></mxCell><mxCell id="OEX8bm3E7YfKXSA0e_z2-111" value="+ goods: Dict[String: Integer]" style="text;strokeColor=none;fillColor=none;align=left;verticalAlign=top;spacingLeft=4;spacingRight=4;overflow=hidden;rotatable=0;points=[[0,0.5],[1,0.5]];portConstraint=eastwest;" parent="OEX8bm3E7YfKXSA0e_z2-43" vertex="1"><mxGeometry y="52" width="323" height="26" as="geometry"/></mxCell><mxCell id="zopAr0e53Q-2KH1AiWCa-45" value="# storageConditions: Dict[String, Float]" style="text;strokeColor=none;fillColor=none;align=left;verticalAlign=top;spacingLeft=4;spacingRight=4;overflow=hidden;rotatable=0;points=[[0,0.5],[1,0.5]];portConstraint=eastwest;fontStyle=4" parent="OEX8bm3E7YfKXSA0e_z2-43" vertex="1"><mxGeometry y="78" width="323" height="26" as="geometry"/></mxCell><mxCell id="OEX8bm3E7YfKXSA0e_z2-45" value="" style="line;strokeWidth=1;fillColor=none;align=left;verticalAlign=middle;spacingTop=-1;spacingLeft=3;spacingRight=3;rotatable=0;labelPosition=right;points=[];portConstraint=eastwest;" parent="OEX8bm3E7YfKXSA0e_z2-43" vertex="1"><mxGeometry y="104" width="323" height="8" as="geometry"/></mxCell><mxCell id="OEX8bm3E7YfKXSA0e_z2-46" value="+ reserveFood(foodList: List[Tuple[String, Float]]): Boolean" style="text;strokeColor=none;fillColor=none;align=left;verticalAlign=top;spacingLeft=4;spacingRight=4;overflow=hidden;rotatable=0;points=[[0,0.5],[1,0.5]];portConstraint=eastwest;" parent="OEX8bm3E7YfKXSA0e_z2-43" vertex="1"><mxGeometry y="112" width="323" height="26" as="geometry"/></mxCell><mxCell id="OEX8bm3E7YfKXSA0e_z2-47" value="+ getInvoice(foodList: List[String: Integer]): Boolean" style="text;strokeColor=none;fillColor=none;align=left;verticalAlign=top;spacingLeft=4;spacingRight=4;overflow=hidden;rotatable=0;points=[[0,0.5],[1,0.5]];portConstraint=eastwest;" parent="OEX8bm3E7YfKXSA0e_z2-43" vertex="1"><mxGeometry y="138" width="323" height="26" as="geometry"/></mxCell><mxCell id="OEX8bm3E7YfKXSA0e_z2-118" value="+ writeoffFood(foodList: List[String]): None" style="text;strokeColor=none;fillColor=none;align=left;verticalAlign=top;spacingLeft=4;spacingRight=4;overflow=hidden;rotatable=0;points=[[0,0.5],[1,0.5]];portConstraint=eastwest;" parent="OEX8bm3E7YfKXSA0e_z2-43" vertex="1"><mxGeometry y="164" width="323" height="26" as="geometry"/></mxCell><mxCell id="OEX8bm3E7YfKXSA0e_z2-48" value="Food" style="swimlane;fontStyle=1;align=center;verticalAlign=top;childLayout=stackLayout;horizontal=1;startSize=26;horizontalStack=0;resizeParent=1;resizeParentMax=0;resizeLast=0;collapsible=1;marginBottom=0;fillColor=#FFFFFF;" parent="zopAr0e53Q-2KH1AiWCa-26" vertex="1"><mxGeometry x="40" y="240" width="210" height="138" as="geometry"/></mxCell><mxCell id="OEX8bm3E7YfKXSA0e_z2-49" value="+ name: String" style="text;strokeColor=none;fillColor=none;align=left;verticalAlign=top;spacingLeft=4;spacingRight=4;overflow=hidden;rotatable=0;points=[[0,0.5],[1,0.5]];portConstraint=eastwest;" parent="OEX8bm3E7YfKXSA0e_z2-48" vertex="1"><mxGeometry y="26" width="210" height="26" as="geometry"/></mxCell><mxCell id="OEX8bm3E7YfKXSA0e_z2-115" value="+ avgMass: Float" style="text;strokeColor=none;fillColor=none;align=left;verticalAlign=top;spacingLeft=4;spacingRight=4;overflow=hidden;rotatable=0;points=[[0,0.5],[1,0.5]];portConstraint=eastwest;" parent="OEX8bm3E7YfKXSA0e_z2-48" vertex="1"><mxGeometry y="52" width="210" height="26" as="geometry"/></mxCell><mxCell id="OEX8bm3E7YfKXSA0e_z2-116" value="+ expireTime: Datetime" style="text;strokeColor=none;fillColor=none;align=left;verticalAlign=top;spacingLeft=4;spacingRight=4;overflow=hidden;rotatable=0;points=[[0,0.5],[1,0.5]];portConstraint=eastwest;" parent="OEX8bm3E7YfKXSA0e_z2-48" vertex="1"><mxGeometry y="78" width="210" height="26" as="geometry"/></mxCell><mxCell id="OEX8bm3E7YfKXSA0e_z2-50" value="" style="line;strokeWidth=1;fillColor=none;align=left;verticalAlign=middle;spacingTop=-1;spacingLeft=3;spacingRight=3;rotatable=0;labelPosition=right;points=[];portConstraint=eastwest;" parent="OEX8bm3E7YfKXSA0e_z2-48" vertex="1"><mxGeometry y="104" width="210" height="8" as="geometry"/></mxCell><mxCell id="OEX8bm3E7YfKXSA0e_z2-51" value="+ checkExpire(): Boolean" style="text;strokeColor=none;fillColor=none;align=left;verticalAlign=top;spacingLeft=4;spacingRight=4;overflow=hidden;rotatable=0;points=[[0,0.5],[1,0.5]];portConstraint=eastwest;" parent="OEX8bm3E7YfKXSA0e_z2-48" vertex="1"><mxGeometry y="112" width="210" height="26" as="geometry"/></mxCell><mxCell id="zopAr0e53Q-2KH1AiWCa-2" value="" style="endArrow=diamondThin;endFill=1;endSize=24;html=1;" parent="zopAr0e53Q-2KH1AiWCa-26" source="OEX8bm3E7YfKXSA0e_z2-48" target="OEX8bm3E7YfKXSA0e_z2-43" edge="1"><mxGeometry width="160" relative="1" as="geometry"><mxPoint x="120" y="220" as="sourcePoint"/><mxPoint x="280" y="220" as="targetPoint"/></mxGeometry></mxCell><mxCell id="zopAr0e53Q-2KH1AiWCa-34" value="" style="endArrow=open;endSize=12;html=1;" parent="WIyWlLk6GJQsqaUBKTNV-1" source="OEX8bm3E7YfKXSA0e_z2-43" target="OEX8bm3E7YfKXSA0e_z2-137" edge="1"><mxGeometry x="-0.125" y="-60" width="160" relative="1" as="geometry"><mxPoint x="310" y="700" as="sourcePoint"/><mxPoint x="350" y="680" as="targetPoint"/><mxPoint x="-1" as="offset"/></mxGeometry></mxCell><mxCell id="zopAr0e53Q-2KH1AiWCa-36" value="" style="endArrow=open;endSize=12;html=1;edgeStyle=elbowEdgeStyle;entryX=0;entryY=0.5;entryDx=0;entryDy=0;" parent="WIyWlLk6GJQsqaUBKTNV-1" source="OEX8bm3E7YfKXSA0e_z2-1" target="OEX8bm3E7YfKXSA0e_z2-146" edge="1"><mxGeometry x="-0.125" y="-60" width="160" relative="1" as="geometry"><mxPoint x="36" y="670" as="sourcePoint"/><mxPoint x="196" y="670" as="targetPoint"/><Array as="points"><mxPoint x="70" y="673"/></Array><mxPoint x="-1" as="offset"/></mxGeometry></mxCell><mxCell id="zopAr0e53Q-2KH1AiWCa-37" value="" style="endArrow=diamondThin;endFill=0;endSize=24;html=1;" parent="WIyWlLk6GJQsqaUBKTNV-1" source="OEX8bm3E7YfKXSA0e_z2-93" target="OEX8bm3E7YfKXSA0e_z2-68" edge="1"><mxGeometry width="160" relative="1" as="geometry"><mxPoint x="400" y="350" as="sourcePoint"/><mxPoint x="480" y="350" as="targetPoint"/></mxGeometry></mxCell><mxCell id="zopAr0e53Q-2KH1AiWCa-40" value="" style="endArrow=open;endSize=12;html=1;edgeStyle=elbowEdgeStyle;entryX=0;entryY=0.5;entryDx=0;entryDy=0;" parent="WIyWlLk6GJQsqaUBKTNV-1" source="wLq6gAzN8LBsn4TCTYnC-0" target="OEX8bm3E7YfKXSA0e_z2-140" edge="1"><mxGeometry x="-0.125" y="-60" width="160" relative="1" as="geometry"><mxPoint y="472.5" as="sourcePoint"/><mxPoint x="84" y="352" as="targetPoint"/><mxPoint x="-1" as="offset"/></mxGeometry></mxCell><mxCell id="zopAr0e53Q-2KH1AiWCa-41" value="" style="endArrow=open;endSize=12;html=1;edgeStyle=elbowEdgeStyle;" parent="WIyWlLk6GJQsqaUBKTNV-1" source="OEX8bm3E7YfKXSA0e_z2-124" target="OEX8bm3E7YfKXSA0e_z2-137" edge="1"><mxGeometry x="-0.125" y="-60" width="160" relative="1" as="geometry"><mxPoint x="90" y="340" as="sourcePoint"/><mxPoint x="200" y="488.5" as="targetPoint"/><mxPoint x="-1" as="offset"/></mxGeometry></mxCell><mxCell id="zopAr0e53Q-2KH1AiWCa-42" style="edgeStyle=elbowEdgeStyle;rounded=0;orthogonalLoop=1;jettySize=auto;html=1;exitX=0.75;exitY=0;exitDx=0;exitDy=0;endArrow=diamondThin;endFill=0;strokeColor=#FFFFFF;" parent="WIyWlLk6GJQsqaUBKTNV-1" source="OEX8bm3E7YfKXSA0e_z2-43" edge="1"><mxGeometry relative="1" as="geometry"><mxPoint x="330" y="690" as="targetPoint"/></mxGeometry></mxCell><mxCell id="SZ_r63iLw-HZoEef_997-0" value="0..*" style="text;html=1;align=center;verticalAlign=middle;resizable=0;points=[];autosize=1;strokeColor=none;" parent="WIyWlLk6GJQsqaUBKTNV-1" vertex="1"><mxGeometry x="255" y="870" width="30" height="20" as="geometry"/></mxCell><mxCell id="SZ_r63iLw-HZoEef_997-1" value="1" style="text;html=1;align=center;verticalAlign=middle;resizable=0;points=[];autosize=1;strokeColor=none;" parent="WIyWlLk6GJQsqaUBKTNV-1" vertex="1"><mxGeometry x="260" y="630" width="20" height="20" as="geometry"/></mxCell><mxCell id="SZ_r63iLw-HZoEef_997-2" value="1" style="text;html=1;align=center;verticalAlign=middle;resizable=0;points=[];autosize=1;strokeColor=none;" parent="WIyWlLk6GJQsqaUBKTNV-1" vertex="1"><mxGeometry x="410" y="510" width="20" height="20" as="geometry"/></mxCell><mxCell id="SZ_r63iLw-HZoEef_997-3" value="0..*" style="text;html=1;align=center;verticalAlign=middle;resizable=0;points=[];autosize=1;strokeColor=none;" parent="WIyWlLk6GJQsqaUBKTNV-1" vertex="1"><mxGeometry x="80" y="530" width="30" height="20" as="geometry"/></mxCell><mxCell id="SZ_r63iLw-HZoEef_997-4" value="1..*" style="text;html=1;align=center;verticalAlign=middle;resizable=0;points=[];autosize=1;strokeColor=none;" parent="WIyWlLk6GJQsqaUBKTNV-1" vertex="1"><mxGeometry x="70" y="470" width="30" height="20" as="geometry"/></mxCell><mxCell id="SZ_r63iLw-HZoEef_997-5" value="0..*" style="text;html=1;align=center;verticalAlign=middle;resizable=0;points=[];autosize=1;strokeColor=none;" parent="WIyWlLk6GJQsqaUBKTNV-1" vertex="1"><mxGeometry x="255" y="332" width="30" height="20" as="geometry"/></mxCell><mxCell id="SZ_r63iLw-HZoEef_997-6" value="0..*" style="text;html=1;align=center;verticalAlign=middle;resizable=0;points=[];autosize=1;strokeColor=none;" parent="WIyWlLk6GJQsqaUBKTNV-1" vertex="1"><mxGeometry x="610" y="370" width="30" height="20" as="geometry"/></mxCell></root></mxGraphModel></diagram></mxfile>